<?xml version="1.0" encoding="UTF-8"?>
<svg width="13px" height="17px" viewBox="0 0 13 17" version="1.1" xmlns="http://www.w3.org/2000/svg" xmlns:xlink="http://www.w3.org/1999/xlink">
    <!-- Generator: Sketch 49 (51002) - http://www.bohemiancoding.com/sketch -->
    <title>ebook icon</title>
    <desc>Created with Sketch.</desc>
    <defs></defs>
    <g id="[Screens]" stroke="none" stroke-width="1" fill="none" fill-rule="evenodd">
        <g id="shop" transform="translate(-606.000000, -243.000000)" fill="#2D2D2D">
            <g id="book-1" transform="translate(182.000000, 129.000000)">
                <g id="book-venders" transform="translate(419.000000, 114.000000)">
                    <g id="books-label" transform="translate(5.000000, 0.000000)">
                        <g id="ebook-icon">
                            <path d="M0.195,0 L12.805,0 C12.9126955,8.48360847e-18 13,0.0815481349 13,0.182142857 L13,16.8178571 C13,16.9184519 12.9126955,17 12.805,17 L0.195,17 C0.0873044738,17 0,16.9184519 0,16.8178571 L0,0.182142857 C0,0.0815481349 0.0873044738,4.54415099e-17 0.195,0 Z M0.975,1.275 L0.975,15.4214286 L12.025,15.4214286 L12.025,1.275 L0.975,1.275 Z M2.015,3.03571429 L11.05,3.03571429 C11.0858985,3.03571429 11.115,3.062897 11.115,3.09642857 L11.115,3.27857143 C11.115,3.312103 11.0858985,3.33928571 11.05,3.33928571 L2.015,3.33928571 C1.97910149,3.33928571 1.95,3.312103 1.95,3.27857143 L1.95,3.09642857 C1.95,3.062897 1.97910149,3.03571429 2.015,3.03571429 Z M2.015,4.9077381 L11.05,4.9077381 C11.0858985,4.9077381 11.115,4.93492081 11.115,4.96845238 L11.115,5.15059524 C11.115,5.18412681 11.0858985,5.21130952 11.05,5.21130952 L2.015,5.21130952 C1.97910149,5.21130952 1.95,5.18412681 1.95,5.15059524 L1.95,4.96845238 C1.95,4.93492081 1.97910149,4.9077381 2.015,4.9077381 Z M2.015,6.7797619 L11.05,6.7797619 C11.0858985,6.7797619 11.115,6.80694462 11.115,6.84047619 L11.115,7.02261905 C11.115,7.05615062 11.0858985,7.08333333 11.05,7.08333333 L2.015,7.08333333 C1.97910149,7.08333333 1.95,7.05615062 1.95,7.02261905 L1.95,6.84047619 C1.95,6.80694462 1.97910149,6.7797619 2.015,6.7797619 Z M2.015,8.65178571 L11.05,8.65178571 C11.0858985,8.65178571 11.115,8.67896843 11.115,8.7125 L11.115,8.89464286 C11.115,8.92817443 11.0858985,8.95535714 11.05,8.95535714 L2.015,8.95535714 C1.97910149,8.95535714 1.95,8.92817443 1.95,8.89464286 L1.95,8.7125 C1.95,8.67896843 1.97910149,8.65178571 2.015,8.65178571 Z M2.015,10.5238095 L11.05,10.5238095 C11.0858985,10.5238095 11.115,10.5509922 11.115,10.5845238 L11.115,10.7666667 C11.115,10.8001982 11.0858985,10.827381 11.05,10.827381 L2.015,10.827381 C1.97910149,10.827381 1.95,10.8001982 1.95,10.7666667 L1.95,10.5845238 C1.95,10.5509922 1.97910149,10.5238095 2.015,10.5238095 Z M2.015,12.3958333 L11.05,12.3958333 C11.0858985,12.3958333 11.115,12.423016 11.115,12.4565476 L11.115,12.6386905 C11.115,12.6722221 11.0858985,12.6994048 11.05,12.6994048 L2.015,12.6994048 C1.97910149,12.6994048 1.95,12.6722221 1.95,12.6386905 L1.95,12.4565476 C1.95,12.423016 1.97910149,12.3958333 2.015,12.3958333 Z M2.015,14.2678571 L11.05,14.2678571 C11.0858985,14.2678571 11.115,14.2950399 11.115,14.3285714 L11.115,14.5107143 C11.115,14.5442459 11.0858985,14.5714286 11.05,14.5714286 L2.015,14.5714286 C1.97910149,14.5714286 1.95,14.5442459 1.95,14.5107143 L1.95,14.3285714 C1.95,14.2950399 1.97910149,14.2678571 2.015,14.2678571 Z"></path>
                        </g>
                    </g>
                </g>
            </g>
        </g>
    </g>
</svg>