<?xml version="1.0" encoding="UTF-8"?>
<svg width="140px" height="27px" viewBox="0 0 140 27" version="1.1" xmlns="http://www.w3.org/2000/svg" xmlns:xlink="http://www.w3.org/1999/xlink">
    <!-- Generator: Sketch 49 (51002) - http://www.bohemiancoding.com/sketch -->
    <title>go to next arrow button</title>
    <desc>Created with Sketch.</desc>
    <defs></defs>
    <g id="go-to-next-arrow-button" stroke="none" stroke-width="1" fill="none" fill-rule="evenodd">
        <g fill="#678960" fill-rule="nonzero" id="Combined-Shape">
            <path d="M117.124619,0.1270276 L139.251396,12.3413133 C139.521465,12.4677542 139.739332,12.6798523 139.869213,12.942769 C140.185334,13.582694 139.908728,14.3509365 139.251396,14.6586867 L117.124619,26.8729724 C116.946028,26.956585 116.750399,27 116.55223,27 L3.08160707,27 C1.38672318,27 0,25.6515 0,24 L0,3 C0,1.35 1.38672318,0 3.08160707,0 L116.55223,0 C116.750399,-1.82710989e-14 116.946028,0.0434150445 117.124619,0.1270276 Z M19.5230817,13.5692349 C19.4211215,13.5692349 19.3384664,13.65189 19.3384664,13.7538503 L19.3384664,14.8615477 C19.3384664,14.963508 19.4211215,15.0461631 19.5230817,15.0461631 L21.7701387,15.0461631 C21.8121072,15.0461631 21.8412838,15.089302 21.8218246,15.1264865 C21.3278846,16.0703632 20.3998903,16.7076953 19.3384666,16.7076953 C17.7606024,16.7076953 16.4769282,15.299783 16.4769282,13.5692349 C16.4769282,11.838679 17.7606024,10.4307665 19.3384666,10.4307665 C20.0888134,10.4307665 20.7721355,10.7496947 21.2829379,11.2698539 C21.3533176,11.3415229 21.4685374,11.3468465 21.5395649,11.2758195 L22.3246,10.4907903 C22.3963229,10.4190677 22.4037404,10.3030338 22.3325713,10.2307614 C21.5539565,9.44007495 20.4998571,8.95384607 19.3384662,8.95384607 C16.9423973,8.95384607 14.9999998,11.0202274 14.9999998,13.5692346 C14.9999998,16.1182418 16.9423973,18.1846152 19.3384662,18.1846152 C21.6783695,18.1846152 23.585618,16.213968 23.673735,13.7476459 C23.6773112,13.6475504 23.5924607,13.5692346 23.4923015,13.5692346 L19.5230815,13.5692346 Z M30.7144606,8.95384625 C28.3183937,8.95384625 26.376,11.0202275 26.376,13.5692347 C26.376,16.1182419 28.3183937,18.1846154 30.7144606,18.1846154 C33.1105265,18.1846154 35.0529202,16.1182421 35.0529202,13.5692347 C35.0529202,11.0202275 33.1105265,8.95384625 30.7144606,8.95384625 Z M30.7144606,10.4307664 C32.2923166,10.4307664 33.5759979,11.8386786 33.5759979,13.5692347 C33.5759979,15.2997828 32.2923166,16.7076951 30.7144606,16.7076951 C29.1366045,16.7076951 27.8529222,15.2997828 27.8529222,13.5692347 C27.8529222,11.8386788 29.1366043,10.4307664 30.7144606,10.4307664 Z M49.008921,9.32308173 C49.008921,9.22112146 48.9262659,9.13846637 48.8243056,9.13846637 L42.9166157,9.13846637 C42.8146554,9.13846637 42.7320003,9.22112146 42.7320003,9.32308173 L42.7320003,10.4307792 C42.7320003,10.5327394 42.8146554,10.6153945 42.9166157,10.6153945 L45.039685,10.6153945 C45.0906652,10.6153945 45.1319926,10.656722 45.1319926,10.7077022 L45.1319926,17.815396 C45.1319926,17.9173563 45.2146477,18.0000114 45.316608,18.0000114 L46.4243054,18.0000114 C46.5262657,18.0000114 46.6089208,17.9173563 46.6089208,17.815396 L46.6089208,10.7077022 C46.6089208,10.656722 46.6502483,10.6153945 46.7012285,10.6153945 L48.8243056,10.6153945 C48.9262659,10.6153945 49.008921,10.5327394 49.008921,10.4307792 L49.008921,9.32308173 Z M56.0464607,8.95384625 C53.6503938,8.95384625 51.7080002,11.0202275 51.7080002,13.5692347 C51.7080002,16.1182419 53.6503938,18.1846154 56.0464607,18.1846154 C58.4425267,18.1846154 60.3849203,16.1182421 60.3849203,13.5692347 C60.3849203,11.0202275 58.4425267,8.95384625 56.0464607,8.95384625 Z M56.0464607,10.4307664 C57.6243168,10.4307664 58.907998,11.8386786 58.907998,13.5692347 C58.907998,15.2997828 57.6243168,16.7076951 56.0464607,16.7076951 C54.4686046,16.7076951 53.1849223,15.2997828 53.1849223,13.5692347 C53.1849223,11.8386788 54.4686044,10.4307664 56.0464607,10.4307664 Z M73.0486122,9.13846637 C72.9466519,9.13846637 72.8639968,9.22112146 72.8639968,9.32308173 L72.8639968,15.8867023 C72.8639968,15.9049096 72.8386523,15.9093787 72.8324248,15.8922695 L70.4373147,9.31194763 C70.3994959,9.20804407 70.3001277,9.13846655 70.1895556,9.13846655 L68.2486156,9.13846655 C68.1466554,9.13846655 68.0640003,9.22112164 68.0640003,9.32308191 L68.0640003,17.8153881 C68.0640003,17.9173484 68.1466554,18.0000035 68.2486156,18.0000035 L69.3563131,18.0000035 C69.4582734,18.0000035 69.5409284,17.9173484 69.5409284,17.8153881 L69.5409284,11.2596702 C69.5409284,11.2414633 69.5662724,11.2369944 69.5724997,11.2541034 L71.9646666,17.8265219 C72.0024845,17.9304256 72.1018522,18.0000037 72.2124242,18.0000037 L74.1563098,18.0000037 C74.2582701,18.0000037 74.3409252,17.9173486 74.3409252,17.8153883 L74.3409252,9.32308209 C74.3409252,9.22112183 74.2582701,9.13846674 74.1563098,9.13846674 L73.0486123,9.13846674 Z M81.6553934,10.6153943 C81.7573537,10.6153943 81.8400088,10.5327393 81.8400088,10.430779 L81.8400088,9.32308154 C81.8400088,9.22112128 81.7573537,9.13846619 81.6553934,9.13846619 L77.2246157,9.13846619 C77.1226554,9.13846619 77.0400003,9.22112128 77.0400003,9.32308154 L77.0400003,17.8153878 C77.0400003,17.917348 77.1226554,18.0000031 77.2246157,18.0000031 L81.6553934,18.0000031 C81.7573537,18.0000031 81.8400088,17.917348 81.8400088,17.8153878 L81.8400088,16.7076903 C81.8400088,16.60573 81.7573537,16.523075 81.6553934,16.523075 L78.6092362,16.523075 C78.5582559,16.523075 78.5169285,16.4817475 78.5169285,16.4307673 L78.5169285,14.4000062 C78.5169285,14.349026 78.5582559,14.3076985 78.6092362,14.3076985 L81.6553934,14.3076985 C81.7573537,14.3076985 81.8400088,14.2250435 81.8400088,14.1230832 L81.8400088,13.0153857 C81.8400088,12.9134255 81.7573537,12.8307704 81.6553934,12.8307704 L78.6092362,12.8307704 C78.5582559,12.8307704 78.5169285,12.7894429 78.5169285,12.7384627 L78.5169285,10.7077017 C78.5169285,10.6567214 78.5582559,10.615394 78.6092362,10.615394 L81.6553934,10.615394 Z M90.0219511,13.6345221 C89.9859025,13.5984736 89.9859025,13.5400278 90.0219511,13.5039794 L93.2125805,10.31335 C93.2846774,10.2412531 93.2846774,10.1243611 93.2125805,10.0522643 L92.4293253,9.26900903 C92.3572284,9.19691217 92.2403364,9.19691217 92.1682396,9.26900903 L88.9776101,12.4596385 C88.9415616,12.495687 88.8831158,12.495687 88.8470675,12.4596385 L85.656438,9.26900903 C85.5843411,9.19691217 85.4674492,9.19691217 85.3953523,9.26900903 L84.6120971,10.0522643 C84.5400002,10.1243611 84.5400002,10.2412531 84.6120971,10.31335 L87.8027265,13.5039794 C87.838775,13.540028 87.838775,13.5984738 87.8027265,13.6345221 L84.6121289,16.8251197 C84.5400321,16.8972166 84.5400321,17.0141085 84.6121289,17.0862054 L85.3953842,17.8694606 C85.467481,17.9415575 85.584373,17.9415575 85.6564699,17.8694606 L88.8470675,14.678863 C88.883116,14.6428145 88.9415618,14.6428145 88.9776101,14.678863 L92.1682077,17.8694606 C92.2403046,17.9415575 92.3571965,17.9415575 92.4292934,17.8694606 L93.2125487,17.0862054 C93.2846455,17.0141085 93.2846455,16.8972166 93.2125487,16.8251197 L90.0219511,13.6345221 Z M102.264921,9.32308173 C102.264921,9.22112146 102.182266,9.13846637 102.080306,9.13846637 L96.172616,9.13846637 C96.0706557,9.13846637 95.9880006,9.22112146 95.9880006,9.32308173 L95.9880006,10.4307792 C95.9880006,10.5327394 96.0706557,10.6153945 96.172616,10.6153945 L98.2956852,10.6153945 C98.3466655,10.6153945 98.3879929,10.656722 98.3879929,10.7077022 L98.3879929,17.815396 C98.3879929,17.9173563 98.470648,18.0000114 98.5726083,18.0000114 L99.6803057,18.0000114 C99.782266,18.0000114 99.8649211,17.9173563 99.8649211,17.815396 L99.8649211,10.7077022 C99.8649211,10.656722 99.9062485,10.6153945 99.9572288,10.6153945 L102.080306,10.6153945 C102.182266,10.6153945 102.264921,10.5327394 102.264921,10.4307792 L102.264921,9.32308173 Z"></path>
        </g>
    </g>
</svg>