<?xml version="1.0" encoding="UTF-8"?>
<svg width="140px" height="27px" viewBox="0 0 140 27" version="1.1" xmlns="http://www.w3.org/2000/svg" xmlns:xlink="http://www.w3.org/1999/xlink">
    <!-- Generator: Sketch 49 (51002) - http://www.bohemiancoding.com/sketch -->
    <title>sign up button hover</title>
    <desc>Created with Sketch.</desc>
    <defs></defs>
    <g id="sign-up-button-hover" stroke="none" stroke-width="1" fill="none" fill-rule="evenodd">
        <g fill="#2F5F7E" id="Combined-Shape">
            <path d="M3,0 L137,0 C138.656854,-3.04359188e-16 140,1.34314575 140,3 L140,24 C140,25.6568542 138.656854,27 137,27 L3,27 C1.34314575,27 2.02906125e-16,25.6568542 0,24 L0,3 C-2.02906125e-16,1.34314575 1.34314575,3.04359188e-16 3,0 Z M43.8623051,10.4307665 C44.5366188,10.4307665 45.1169249,10.8402248 45.2278439,11.3588353 C45.2491125,11.4582781 45.3298469,11.5384627 45.4315385,11.5384627 L46.5392281,11.5384627 C46.640364,11.5384627 46.7246099,11.4568592 46.716825,11.3560234 C46.6131917,10.0137089 45.3747822,8.95384644 43.8623051,8.95384644 C42.2819208,8.95384644 41.0007668,10.1110168 41.0007668,11.5384627 C41.0007668,12.5938385 41.7010858,13.5014672 42.7048806,13.9029294 L44.466188,14.6073428 C44.9239615,14.7904204 45.2469233,15.1714904 45.2469233,15.6000071 C45.2469233,16.2004316 44.6128456,16.7076874 43.8623052,16.7076874 C43.1879915,16.7076874 42.6076918,16.2982355 42.496774,15.779632 C42.4755056,15.6801899 42.3947708,15.6000071 42.2930798,15.6000071 L41.1853824,15.6000071 C41.0842468,15.6000071 41.0000004,15.6816099 41.0077855,15.7824454 C41.1114188,17.1247529 42.3498282,18.1846154 43.8623054,18.1846154 C45.4426896,18.1846154 46.7238436,17.027445 46.7238436,15.600007 C46.7238436,14.5446392 46.0235326,13.6370024 45.0197458,13.2355483 L43.2584146,12.5311192 C42.8006489,12.3480416 42.477695,11.9669797 42.477695,11.5384627 C42.477695,10.9380304 43.1117647,10.4307667 43.8623052,10.4307667 Z M50.3239999,17.8153947 C50.3239999,17.917355 50.406655,18.0000101 50.5086153,18.0000101 L51.6163127,18.0000101 C51.718273,18.0000101 51.8009281,17.917355 51.8009281,17.8153947 L51.8009281,9.3230885 C51.8009281,9.22112823 51.718273,9.13847314 51.6163127,9.13847314 L50.5086153,9.13847314 C50.406655,9.13847314 50.3239999,9.22112823 50.3239999,9.3230885 L50.3239999,17.8153947 Z M59.9230815,13.5692349 C59.8211213,13.5692349 59.7384662,13.65189 59.7384662,13.7538503 L59.7384662,14.8615477 C59.7384662,14.963508 59.8211213,15.0461631 59.9230815,15.0461631 L62.1701385,15.0461631 C62.212107,15.0461631 62.2412836,15.089302 62.2218244,15.1264865 C61.7278844,16.0703632 60.7998901,16.7076953 59.7384664,16.7076953 C58.1606022,16.7076953 56.876928,15.299783 56.876928,13.5692349 C56.876928,11.838679 58.1606022,10.4307665 59.7384664,10.4307665 C60.4888132,10.4307665 61.1721353,10.7496947 61.6829377,11.2698539 C61.7533174,11.3415229 61.8685372,11.3468465 61.9395648,11.2758195 L62.7245998,10.4907903 C62.7963227,10.4190677 62.8037402,10.3030338 62.7325711,10.2307614 C61.9539563,9.44007495 60.8998569,8.95384607 59.738466,8.95384607 C57.3423971,8.95384607 55.3999996,11.0202274 55.3999996,13.5692346 C55.3999996,16.1182418 57.3423971,18.1846152 59.738466,18.1846152 C62.0783693,18.1846152 63.9856179,16.213968 64.0737348,13.7476459 C64.077311,13.6475504 63.9924605,13.5692346 63.8923013,13.5692346 L59.9230814,13.5692346 Z M72.6606116,9.13846637 C72.5586513,9.13846637 72.4759962,9.22112146 72.4759962,9.32308173 L72.4759962,15.8867023 C72.4759962,15.9049096 72.4506517,15.9093787 72.4444243,15.8922695 L70.0493141,9.31194763 C70.0114953,9.20804407 69.9121271,9.13846655 69.801555,9.13846655 L67.8606151,9.13846655 C67.7586548,9.13846655 67.6759997,9.22112164 67.6759997,9.32308191 L67.6759997,17.8153881 C67.6759997,17.9173484 67.7586548,18.0000035 67.8606151,18.0000035 L68.9683125,18.0000035 C69.0702728,18.0000035 69.1529279,17.9173484 69.1529279,17.8153881 L69.1529279,11.2596702 C69.1529279,11.2414633 69.1782719,11.2369944 69.1844991,11.2541034 L71.576666,17.8265219 C71.6144839,17.9304256 71.7138516,18.0000037 71.8244237,18.0000037 L73.7683092,18.0000037 C73.8702695,18.0000037 73.9529246,17.9173486 73.9529246,17.8153883 L73.9529246,9.32308209 C73.9529246,9.22112183 73.8702695,9.13846674 73.7683092,9.13846674 L72.6606118,9.13846674 Z M89.1550917,9.32309766 C89.1551003,9.22113922 89.0724353,9.1384823 88.9704769,9.1384823 L87.8627794,9.1384823 C87.7608192,9.1384823 87.6781641,9.22113739 87.6781641,9.32309766 L87.6781641,15.6000071 C87.6781562,16.2004316 87.0440784,16.7076874 86.2935379,16.7076874 C85.5430014,16.7076874 84.9089357,16.2004396 84.9089279,15.6000231 L84.9089317,9.32309784 C84.9089339,9.22113812 84.8262764,9.13848267 84.7243167,9.13848267 L83.6166193,9.13848267 C83.514659,9.13848267 83.4320039,9.22113776 83.4320039,9.32309802 L83.4320039,15.6000075 C83.4319999,17.0274456 84.7131539,18.1846159 86.2935383,18.1846159 C87.8739187,18.1846159 89.1550686,17.0274534 89.1550767,15.6000234 L89.1550922,9.32309821 Z M96.0790799,9.13918195 L92.9406148,9.13850629 C92.8386613,9.13813312 92.7559996,9.22112769 92.7559996,9.32308191 L92.7559996,17.8153881 C92.7559996,17.9173484 92.8386547,18.0000035 92.940615,18.0000035 L94.0483124,18.0000035 C94.1502727,18.0000035 94.2329278,17.9173484 94.2329278,17.8153881 L94.2329278,14.3996887 C94.2329278,14.3487054 94.2742521,14.3073721 94.3252356,14.3073611 L96.0790802,14.3069835 C97.3047974,14.2916713 98.2944645,13.1409884 98.2944645,11.7230826 C98.2944645,10.3051611 97.3047974,9.15449414 96.0790802,9.13918195 Z M96.0790797,12.8288309 L94.3252351,12.8298582 C94.2742664,12.8304252 94.2329274,12.7885763 94.2329274,12.7376045 L94.2329274,10.7085608 C94.2329274,10.6575888 94.2742633,10.6162771 94.3252353,10.6163068 L96.0790799,10.6173265 C96.4751916,10.6377982 96.8175439,11.1450223 96.8175439,11.7230828 C96.8175439,12.3011433 96.4751916,12.8083594 96.0790799,12.8288311 Z"></path>
        </g>
    </g>
</svg>