<?xml version="1.0" encoding="UTF-8"?>
<svg width="160px" height="41px" viewBox="0 0 160 41" version="1.1" xmlns="http://www.w3.org/2000/svg" xmlns:xlink="http://www.w3.org/1999/xlink">
    <!-- Generator: Sketch 49 (51002) - http://www.bohemiancoding.com/sketch -->
    <title>amazon button</title>
    <desc>Created with Sketch.</desc>
    <defs>
        <path d="M1,0 L136.5,0 C146.164983,-1.7754286e-15 154,7.83501688 154,17.5 L154,17.5 C154,27.1649831 146.164983,35 136.5,35 L1,35 C0.44771525,35 6.76353751e-17,34.5522847 0,34 L0,1 C-6.76353751e-17,0.44771525 0.44771525,1.01453063e-16 1,0 Z" id="path-1"></path>
        <filter x="-3.2%" y="-11.4%" width="106.5%" height="128.6%" filterUnits="objectBoundingBox" id="filter-2">
            <feOffset dx="0" dy="1" in="SourceAlpha" result="shadowOffsetOuter1"></feOffset>
            <feGaussianBlur stdDeviation="1.5" in="shadowOffsetOuter1" result="shadowBlurOuter1"></feGaussianBlur>
            <feColorMatrix values="0 0 0 0 0   0 0 0 0 0   0 0 0 0 0  0 0 0 0.5 0" type="matrix" in="shadowBlurOuter1"></feColorMatrix>
        </filter>
    </defs>
    <g id="[Screens]" stroke="none" stroke-width="1" fill="none" fill-rule="evenodd">
        <g id="shop" transform="translate(-598.000000, -273.000000)">
            <g id="book-1" transform="translate(182.000000, 129.000000)">
                <g id="book-venders" transform="translate(419.000000, 114.000000)">
                    <g id="amazon-button" transform="translate(0.000000, 32.000000)">
                        <g id="background">
                            <use fill="black" fill-opacity="1" filter="url(#filter-2)" xlink:href="#path-1"></use>
                            <use fill="#CFE2EE" fill-rule="evenodd" xlink:href="#path-1"></use>
                        </g>
                        <text id="amazon" font-family="AvenirNext-UltraLight, Avenir Next" font-size="12" font-weight="200" letter-spacing="0.359999985" fill="#BA3C32">
                            <tspan x="52.5" y="22">amazon</tspan>
                        </text>
                        <path d="M25.2066511,12.816383 L25.2066511,12.8163174 L25.2063869,12.8163174 L25.2063869,12.425127 C25.2063869,11.7403307 25.2540778,10.9568344 24.8622462,10.3685067 C24.5169826,9.88124139 23.8775151,9.6356072 23.2893053,9.6356072 C23.1906208,9.6356072 23.1410804,9.6356072 23.0912758,9.6356072 C22.1078657,9.73430712 21.2230081,10.2721036 20.9759666,11.3475653 C20.9270206,11.5931339 20.780381,11.8371275 20.4850542,11.8878556 L17.7321269,11.5450308 C17.5354845,11.4948933 17.2399595,11.3476966 17.3365303,10.9569 C17.9279106,7.87292098 20.5835405,6.79745927 23.0912758,6.65 C23.2893053,6.65 23.4847587,6.65 23.6822598,6.65 C25.0588225,6.65 26.8295287,7.04079659 27.9605692,8.07025521 C29.3363393,9.34134491 29.190096,11.0537624 29.190096,12.9148204 L29.190096,17.3202891 C29.190096,18.6396787 29.7306148,19.2280721 30.2721245,19.9128684 C30.4184999,20.1583714 30.4683705,20.450468 30.2233107,20.6481304 C29.6808763,21.1374957 28.6485203,22.0178544 28.0585271,22.5072853 C27.8626773,22.6545477 27.6167588,22.6545477 27.3707081,22.555979 C26.4352531,21.7743858 26.2885475,21.4316267 25.7474342,20.6962991 C24.8134984,21.6758172 24.0265326,22.2132199 23.091474,22.5072853 C22.5025376,22.6545477 21.8634004,22.7507539 21.0753776,22.7507539 C18.7154049,22.7507539 16.8462124,21.2849549 16.8462124,18.3962758 C16.8462124,16.0953994 18.0760694,14.5305724 19.8954573,13.7950479 C20.8298554,13.3561482 21.9606977,13.1587484 23.09154,13.0136516 C23.8291636,12.9149517 24.5670514,12.8665861 25.2066511,12.816383 Z M25.2066511,15.6564997 L25.206519,15.6564997 L25.206519,15.0681064 C24.4692917,15.0681064 23.7312718,15.1167344 23.0914079,15.2638 C21.9114215,15.6064278 20.9761647,16.3414273 20.9761647,17.9069762 C20.9761647,19.1316034 21.6172836,19.9632684 22.6986516,19.9632684 C22.8472067,19.9632684 22.9936482,19.9129997 23.091474,19.9129997 C23.7312718,19.765606 24.321331,19.3248032 24.6653396,18.6398756 C25.2544081,17.6627201 25.2066511,16.7827551 25.2066511,15.6564997 Z M34.2647509,27.2853068 C34.0238524,27.4722723 33.7845392,27.365238 33.889763,27.0984726 C34.2385935,26.2473169 35.0385059,24.2786996 34.66583,23.8278562 C34.3988402,23.4830627 33.3034688,23.5101002 32.368212,23.5875376 C31.9409756,23.6426626 31.5658556,23.6679282 31.2721141,23.7219375 C31.0052564,23.7471375 30.9515546,23.5102314 31.2191389,23.3229378 C31.5659217,23.0839318 31.9409756,22.8988694 32.368212,22.7646664 C33.8896309,22.3121167 35.6547886,22.5797352 35.895621,22.8714382 C35.9482659,22.951435 36.0013072,23.1093286 36.0013072,23.3229378 L36.0013072,23.4830627 C35.9748856,24.4405308 35.4669974,26.2748138 34.2647509,27.2853068 Z M9.71239403,23.4830627 C9.41739743,23.2433348 9.65836196,22.8988038 10.0057393,23.0839974 C13.7196844,25.2374146 18.3138634,26.5413824 23.0702707,26.5413824 C26.0638983,26.5413824 29.2940648,25.9827828 32.368146,24.7852586 C32.5815,24.7059181 32.8222003,24.5981619 33.0354883,24.5184276 C33.5163605,24.3062621 33.943663,24.839793 33.4623945,25.184324 C33.1156777,25.4494488 32.7431338,25.6884548 32.368212,25.9030484 C29.5627719,27.577666 25.9296768,28.4557935 22.7772557,28.4557935 C17.6999587,28.4557935 13.1584246,26.5939479 9.71239403,23.4830627 Z" id="Combined-Shape" fill="#BA3C32"></path>
                    </g>
                </g>
            </g>
        </g>
    </g>
</svg>