<?xml version="1.0" encoding="UTF-8"?>
<svg width="162px" height="43px" viewBox="0 0 162 43" version="1.1" xmlns="http://www.w3.org/2000/svg" xmlns:xlink="http://www.w3.org/1999/xlink">
    <!-- Generator: Sketch 49 (51002) - http://www.bohemiancoding.com/sketch -->
    <title>b&amp;n button</title>
    <desc>Created with Sketch.</desc>
    <defs>
        <path d="M1,0 L136.5,0 C146.164983,-1.7754286e-15 154,7.83501688 154,17.5 L154,17.5 C154,27.1649831 146.164983,35 136.5,35 L1,35 C0.44771525,35 6.76353751e-17,34.5522847 0,34 L0,1 C-6.76353751e-17,0.44771525 0.44771525,1.01453063e-16 1,0 Z" id="path-1"></path>
        <filter x="-4.5%" y="-14.3%" width="109.1%" height="140.0%" filterUnits="objectBoundingBox" id="filter-2">
            <feOffset dx="0" dy="2" in="SourceAlpha" result="shadowOffsetOuter1"></feOffset>
            <feGaussianBlur stdDeviation="2" in="shadowOffsetOuter1" result="shadowBlurOuter1"></feGaussianBlur>
            <feColorMatrix values="0 0 0 0 0   0 0 0 0 0   0 0 0 0 0  0 0 0 0.5 0" type="matrix" in="shadowBlurOuter1"></feColorMatrix>
        </filter>
    </defs>
    <g id="[Screens]" stroke="none" stroke-width="1" fill="none" fill-rule="evenodd">
        <g id="shop" transform="translate(-597.000000, -325.000000)">
            <g id="book-1" transform="translate(182.000000, 129.000000)">
                <g id="book-venders" transform="translate(419.000000, 114.000000)">
                    <g id="b&amp;n-button" transform="translate(0.000000, 84.000000)">
                        <g id="background">
                            <use fill="black" fill-opacity="1" filter="url(#filter-2)" xlink:href="#path-1"></use>
                            <use fill="#CFE2EE" fill-rule="evenodd" xlink:href="#path-1"></use>
                        </g>
                        <text id="barnes-&amp;-noble" font-family="AvenirNext-UltraLight, Avenir Next" font-size="12" font-weight="200" letter-spacing="0.359999985" fill="#BA3C32">
                            <tspan x="53.5" y="22">barnes &amp; noble</tspan>
                        </text>
                        <g id="B&amp;N" transform="translate(10.200000, 10.400000)" fill="#BA3C32">
                            <path d="M24.3772894,7.03172647 C24.5482295,9.11377775 24.5482295,9.68813673 24.5482295,11.518906 L24.5482295,15.4676239 L21.4285714,15.4676239 L21.4285714,0.0317264692 L24.5054945,0.0317264692 C24.5054945,0.0317264692 25.8730159,4.59070083 26.2148962,5.52403416 C26.5140415,6.49326493 26.7704518,7.24711108 26.8559219,7.9650598 C26.7704518,6.42147006 26.7704518,4.59070083 26.7704518,3.04711108 L26.7704518,0 L29.7619048,0 L29.7619048,15.4969731 L27.1550672,15.4969731 L25.1037851,9.61634185 L25.1465201,9.68813673 C24.8473748,8.97018801 24.6336996,8.10864955 24.3772894,7.03172647 Z" id="N"></path>
                            <path d="M18.2427502,9.50084746 C17.5291055,9.50084746 18.091371,7.93305085 17.4209775,7.93305085 C17.0317168,7.93305085 16.7722096,8.43474576 16.3396977,9.75169492 L15.6909298,12.009322 L15.8206833,12.4169492 C16.2531953,13.2635593 16.642456,13.859322 17.1182191,13.859322 C17.3777263,13.859322 17.6588591,13.6711864 18.091371,13.0440678 L18.307627,13.4830508 C17.8318638,14.329661 17.2263471,14.8 16.6857072,14.8 C16.0369393,14.8 15.4746738,13.9533898 15.0637874,13.2949153 C14.4582707,14.2355932 13.7662516,14.8 12.8147254,14.8 C11.4523128,14.8 10.2196538,13.5457627 10.5224121,10.7237288 C10.7819193,9.03050847 11.6685687,7.90169492 12.6849718,6.96101695 C12.3822134,5.83220339 12.2092087,4.45254237 12.3389622,3.41779661 C12.5768438,1.25423729 13.9176308,0 15.0637874,0 C16.4045745,0 17.0100912,1.31694915 16.7938352,2.8220339 C16.6857072,3.6059322 16.4478256,4.32711864 15.8855601,5.01694915 C15.301669,5.76949153 14.3285172,6.4279661 13.7878772,6.89830508 C14.1338868,8.15254237 14.6529011,9.56355932 15.3881714,11.3822034 C15.6044274,10.7550847 15.9288113,9.62627119 16.2531953,8.71694915 C16.534328,7.77627119 16.9884656,7.21186441 17.6588591,7.21186441 C18.5887597,7.21186441 18.8482669,8.15254237 18.8050157,8.71694915 C18.7617645,9.1559322 18.5887597,9.50084746 18.2427502,9.50084746 Z M13.2827347,13.9515705 C13.9315026,13.9515705 14.3640145,13.700723 14.7965265,12.9168247 C13.9747538,11.2236044 13.3908627,9.59309589 12.9150995,7.96258742 C12.2663316,8.77784166 11.7905685,9.68716369 11.6175637,11.2236044 C11.4878101,12.3837739 11.9851989,13.9515705 13.2827347,13.9515705 Z M16.0336707,2.54490488 C16.1850499,1.41609132 15.7309123,0.663548952 15.0605188,0.663548952 C14.195495,0.663548952 13.5467271,1.69829471 13.5034759,2.67032861 C13.3520967,3.73643031 13.4385991,4.77117607 13.6764806,5.8686337 C14.195495,5.42965065 15.2767748,4.45761675 15.6227844,3.9245659 L15.6011588,3.9245659 C15.8822915,3.39151505 15.9687939,2.98388793 16.0336707,2.54490488 Z" id="&amp;"></path>
                            <path d="M8.33333333,10.5665116 C8.33333333,13.664186 6.71521036,14.8 3.88349515,14.8 L0,14.8 L0,0 L3.92394822,0 C6.99838188,0 7.80744337,1.5144186 7.80744337,4.02697674 C7.80744337,5.8855814 6.99838188,6.84930233 5.66343042,6.91813953 C7.16019417,6.91813953 8.33333333,8.19162791 8.33333333,10.5665116 Z M3.6407767,1.78976744 L3.03398058,1.78976744 L3.03398058,6.09209302 L3.84304207,6.09209302 C4.65210356,6.09209302 4.77346278,5.40372093 4.77346278,4.16465116 C4.77346278,2.44372093 4.57119741,1.75534884 3.55987055,1.75534884 L3.6407767,1.78976744 Z M3.72168285,7.81302326 L3.07443366,7.81302326 L3.07443366,13.0790698 L3.88349515,13.0790698 C4.81391586,13.0790698 5.09708738,12.5972093 5.09708738,10.3255814 C5.09708738,8.70790698 4.81391586,7.84744186 3.76213592,7.84744186 L3.72168285,7.81302326 Z" id="B"></path>
                        </g>
                    </g>
                </g>
            </g>
        </g>
    </g>
</svg>