<?xml version="1.0" encoding="UTF-8"?>
<svg width="16px" height="14px" viewBox="0 0 16 14" version="1.1" xmlns="http://www.w3.org/2000/svg" xmlns:xlink="http://www.w3.org/1999/xlink">
    <!-- Generator: Sketch 49 (51002) - http://www.bohemiancoding.com/sketch -->
    <title>audio icon</title>
    <desc>Created with Sketch.</desc>
    <defs></defs>
    <g id="[Screens]" stroke="none" stroke-width="1" fill="none" fill-rule="evenodd">
        <g id="shop" transform="translate(-826.000000, -244.000000)" fill="#2D2D2D">
            <g id="book-1" transform="translate(182.000000, 129.000000)">
                <g id="audio-venders" transform="translate(638.000000, 115.000000)">
                    <g id="audio-label" transform="translate(6.000000, 0.000000)">
                        <g id="audio-icon" transform="translate(0.500000, 0.000000)">
                            <path d="M14.2765183,6.82605422 C14.2281522,3.04769961 11.2127267,0 7.5,0 C3.78727329,0 0.771847849,3.04769961 0.723481658,6.82605422 L0.451807229,6.82605422 C0.202280987,6.82605422 0,7.03254939 0,7.2872741 L0,13.1908886 C0,13.4456133 0.202280987,13.6521084 0.451807229,13.6521084 L3.75,13.6521084 C4.37381561,13.6521084 4.87951807,13.1358705 4.87951807,12.4990587 L4.87951807,7.97910392 C4.87951807,7.34229215 4.37381561,6.82605422 3.75,6.82605422 L2.03464218,6.82605422 C2.10280586,3.70591776 4.47141013,1.19917169 7.54518072,1.19917169 C10.6189513,1.19917169 12.9875556,3.70591776 13.0557193,6.82605385 L11.25,6.82605422 C10.6261844,6.82605422 10.1204819,7.34229215 10.1204819,7.97910392 L10.1204819,12.4990587 C10.1204819,13.1358705 10.6261844,13.6521084 11.25,13.6521084 L14.5481928,13.6521084 C14.797719,13.6521084 15,13.4456133 15,13.1908886 L15,7.2872741 C15,7.03254939 14.797719,6.82605422 14.5481928,6.82605422 L14.2765183,6.82605422 Z" id="Combined-Shape"></path>
                        </g>
                    </g>
                </g>
            </g>
        </g>
    </g>
</svg>