<?xml version="1.0" encoding="UTF-8"?>
<svg width="140px" height="27px" viewBox="0 0 140 27" version="1.1" xmlns="http://www.w3.org/2000/svg" xmlns:xlink="http://www.w3.org/1999/xlink">
    <!-- Generator: Sketch 49 (51002) - http://www.bohemiancoding.com/sketch -->
    <title>buy button hover</title>
    <desc>Created with Sketch.</desc>
    <defs></defs>
    <g id="buy-button-hover" stroke="none" stroke-width="1" fill="none" fill-rule="evenodd">
        <g fill="#BA3C32" id="Combined-Shape">
            <path d="M3,0 L137,0 C138.656854,-3.04359188e-16 140,1.34314575 140,3 L140,24 C140,25.6568542 138.656854,27 137,27 L3,27 C1.34314575,27 -2.22285788e-13,25.6568542 -2.22488694e-13,24 L-2.22488694e-13,3 C-2.226916e-13,1.34314575 1.34314575,3.04359188e-16 3,0 Z M63.5528774,11.4731501 C63.5528774,10.1058686 62.5560903,8.99629686 61.3215551,8.98153153 L57.974563,8.98088512 C57.8718756,8.98052811 57.7886196,9.0605577 57.7886196,9.15887105 L57.7886196,17.3478806 C57.7886196,17.4461883 57.871881,17.5258699 57.9745632,17.5258295 L61.3215553,17.5245149 C62.5560905,17.5097496 63.5528776,16.4001625 63.5528776,15.0328962 C63.5528776,14.3680171 63.3168188,13.764484 62.9326575,13.3177773 C62.9003577,13.2802189 62.9003577,13.2258193 62.9326575,13.1882609 C63.3168188,12.7415542 63.5528776,12.1380215 63.5528776,11.4731497 Z M61.3215551,12.5394072 L59.3691447,12.5394109 C59.3177974,12.5394128 59.276173,12.4995599 59.276173,12.4504001 L59.276173,10.495896 C59.276173,10.4467365 59.3177978,10.406885 59.3691447,10.406885 L61.3215551,10.406885 C61.7205165,10.4266256 62.0653318,10.9157346 62.0653318,11.4731501 C62.0653318,12.0305655 61.7205165,12.5196667 61.3215551,12.5394073 Z M61.3215551,16.0991539 L59.3691447,16.0991539 C59.3177978,16.0991539 59.276173,16.0593024 59.276173,16.0101429 L59.276173,14.0537797 C59.276173,14.0046202 59.3177978,13.9647688 59.3691447,13.9647688 L61.3215551,13.9647688 C61.7205165,13.9863723 62.0653318,14.4754811 62.0653318,15.0328966 C62.0653318,15.5903121 61.7205165,16.0794133 61.3215551,16.0991539 Z M73.2461222,9.15887988 C73.2461309,9.06056282 73.1628712,8.98085793 73.0601792,8.98085793 L71.9445127,8.98085793 C71.8418189,8.98085793 71.7585692,9.06056105 71.7585692,9.15887988 L71.7585692,15.211614 C71.7585613,15.7905947 71.1199218,16.2797343 70.3639817,16.2797343 C69.6080457,16.2797343 68.9694184,15.7906025 68.9694104,15.2116294 L68.9694143,9.15888006 C68.9694165,9.06056176 68.8861644,8.98085829 68.7834712,8.98085829 L67.6678047,8.98085829 C67.5651109,8.98085829 67.4818611,9.06056141 67.4818611,9.15888024 L67.4818611,15.2116144 C67.4818571,16.5880725 68.772228,17.7039153 70.3639821,17.7039153 C71.9557321,17.7039153 73.246099,16.5880801 73.2461071,15.2116297 L73.2461227,9.15888041 Z M82.9520583,9.14812843 C82.9829852,9.06677777 82.9201354,8.98084257 82.8297116,8.98084257 L81.6185807,8.98084257 C81.5072133,8.98084257 81.4071306,9.04793553 81.3690405,9.14812843 L80.1108299,12.457751 C80.1000287,12.486163 80.0580349,12.4861628 80.0472336,12.4577509 L78.7890382,9.1481286 C78.7509486,9.0479357 78.650866,8.98084239 78.5394987,8.98084239 L77.3283677,8.98084239 C77.2379438,8.98084239 77.175094,9.06677741 77.2060208,9.14812807 L79.3034886,14.6653565 C79.3245125,14.720658 79.335287,14.7791596 79.335287,14.8380105 L79.335287,17.3479045 C79.335287,17.4462233 79.4185367,17.5259264 79.5212305,17.5259264 L80.636897,17.5259264 C80.7395908,17.5259264 80.8228405,17.4462233 80.8228405,17.3479045 L80.8228405,14.8378572 C80.8228405,14.7790065 80.8336151,14.7205049 80.8546391,14.6652034 L82.9520584,9.14812807 Z"></path>
        </g>
    </g>
</svg>