<?xml version="1.0" encoding="UTF-8"?>
<svg width="19px" height="19px" viewBox="0 0 19 19" version="1.1" xmlns="http://www.w3.org/2000/svg" xmlns:xlink="http://www.w3.org/1999/xlink">
    <!-- Generator: Sketch 49 (51002) - http://www.bohemiancoding.com/sketch -->
    <title>goodreads icon</title>
    <desc>Created with Sketch.</desc>
    <defs>
        <path d="M0.34,0 L16.66,0 C16.8477768,0 17,0.152223185 17,0.34 L17,16.66 C17,16.8477768 16.8477768,17 16.66,17 L0.34,17 C0.152223185,17 0,16.8477768 0,16.66 L0,0.34 C0,0.152223185 0.152223185,0 0.34,0 Z" id="path-1"></path>
        <filter x="-8.8%" y="-8.8%" width="117.6%" height="117.6%" filterUnits="objectBoundingBox" id="filter-2">
            <feOffset dx="0" dy="0" in="SourceAlpha" result="shadowOffsetOuter1"></feOffset>
            <feGaussianBlur stdDeviation="0.5" in="shadowOffsetOuter1" result="shadowBlurOuter1"></feGaussianBlur>
            <feColorMatrix values="0 0 0 0 0   0 0 0 0 0   0 0 0 0 0  0 0 0 0.5 0" type="matrix" in="shadowBlurOuter1"></feColorMatrix>
        </filter>
    </defs>
    <g id="[Screens]" stroke="none" stroke-width="1" fill="none" fill-rule="evenodd">
        <g id="part-sample" transform="translate(-1004.000000, -1637.000000)">
            <g id="continue-div" transform="translate(696.000000, 1282.000000)">
                <g id="add-to-Goodreads" transform="translate(221.000000, 355.000000)">
                    <g id="goodreads-icon" transform="translate(88.000000, 1.000000)">
                        <g id="background">
                            <use fill="black" fill-opacity="1" filter="url(#filter-2)" xlink:href="#path-1"></use>
                            <use fill="#CFE2EE" fill-rule="evenodd" xlink:href="#path-1"></use>
                        </g>
                        <path d="M11.54287,10.1890132 L11.54287,4.10256428 L10.7336275,4.10256428 L10.7336275,5.24495483 L10.7082279,5.24495483 C10.6255316,5.06597637 10.5192078,4.89467686 10.3774427,4.73105629 C10.2356776,4.56920778 10.0761918,4.4256706 9.89307853,4.30162613 C9.70996525,4.17758165 9.51503822,4.08129951 9.29648367,4.01218902 C9.07851981,3.94544128 8.84815149,3.91 8.60006254,3.91 C8.12455872,3.91 7.69630994,3.9986032 7.32417651,4.17344684 C6.95204309,4.34888117 6.63897846,4.58870049 6.38675469,4.89231411 C6.13453092,5.19651842 5.94196664,5.55152189 5.80906185,5.95791522 C5.67674774,6.36548992 5.61,6.79492008 5.61,7.24856845 C5.61,7.71934677 5.66552467,8.16236275 5.7771647,8.5776164 C5.88939541,8.99287005 6.06660181,9.35437109 6.31469076,9.66271022 C6.56277971,9.96986796 6.86993746,10.21205 7.24797776,10.3833495 C7.62601807,10.5546491 8.08084781,10.6432523 8.61246699,10.6432523 C9.10273801,10.6432523 9.52803336,10.5192078 9.8942599,10.2711188 C10.2604864,10.0230299 10.5381098,9.69224461 10.72713,9.27876303 L10.7507575,9.27876303 L10.7507575,10.1766088 C10.7507575,10.9799444 10.5853648,11.5942599 10.2545796,12.0254621 C9.9237943,12.4507575 9.38036136,12.669312 8.62428075,12.669312 C8.39981932,12.669312 8.18126477,12.6456845 7.9686171,12.5984295 C7.75596942,12.5511744 7.56104239,12.474385 7.383836,12.373968 C7.21253648,12.2676442 7.05895761,12.1376928 6.93491313,11.9663933 C6.81086866,11.7950938 6.72817234,11.588353 6.68682418,11.3402641 L5.85927033,11.3402641 C5.88585129,11.68877 5.9833148,11.9900208 6.14870744,12.2440167 C6.31587213,12.4980125 6.52674774,12.7047533 6.77838082,12.8701459 C7.03060459,13.0296317 7.31590688,13.1477693 7.63192495,13.2245587 C7.95089646,13.3013482 8.27577484,13.3426963 8.61246699,13.3426963 C9.15589993,13.3426963 9.61072967,13.2659069 9.9828631,13.1241418 C10.3549965,12.9764698 10.6562474,12.769729 10.8866157,12.4921056 C11.1228909,12.2144823 11.2882835,11.883697 11.3946074,11.4879361 C11.5009312,11.0921751 11.56,10.6491591 11.56,10.164795 L11.54287,10.1890132 Z M8.60124392,9.97045865 C8.22556637,9.97045865 7.90009729,9.89603197 7.62660876,9.74599722 C7.35252953,9.59655316 7.12452397,9.39926338 6.94554552,9.15530924 C6.76243224,8.91135511 6.63248089,8.63136901 6.54387769,8.31476025 C6.4552745,7.99756081 6.41392634,7.67268242 6.41392634,7.33835302 C6.41392634,6.995754 6.4552745,6.66024322 6.53206393,6.33063933 C6.61476025,6.00103544 6.74471161,5.70746352 6.921918,5.45051425 C7.09912439,5.19415566 7.3294927,4.9862335 7.60120917,4.82792912 C7.87292564,4.66962474 8.20371091,4.59047255 8.5876581,4.59047255 C8.97160528,4.59047255 9.29648367,4.67198749 9.56820014,4.83442669 C9.83400973,4.99745657 10.0584712,5.21128562 10.2297707,5.47650452 C10.4010702,5.74231411 10.5251147,6.0376581 10.6019041,6.36253648 C10.6786935,6.68741487 10.7141348,7.01347464 10.7141348,7.33835302 C10.7141348,7.67268242 10.6668798,7.99756081 10.5782766,8.31476025 C10.4896734,8.63136901 10.3538151,8.91135511 10.1707019,9.15530924 C9.9875886,9.39926338 9.76903405,9.59655316 9.50322446,9.74599722 C9.23741487,9.89603197 8.93025712,9.97045865 8.57584434,9.97045865 L8.60124392,9.97045865 Z" id="Shape" fill="#BA3C32"></path>
                    </g>
                </g>
            </g>
        </g>
    </g>
</svg>