<?xml version="1.0" encoding="UTF-8"?>
<svg width="140px" height="27px" viewBox="0 0 140 27" version="1.1" xmlns="http://www.w3.org/2000/svg" xmlns:xlink="http://www.w3.org/1999/xlink">
    <!-- Generator: Sketch 49 (51002) - http://www.bohemiancoding.com/sketch -->
    <title>log in button</title>
    <desc>Created with Sketch.</desc>
    <defs></defs>
    <g id="log-in-button" stroke="none" stroke-width="1" fill="none" fill-rule="evenodd">
        <g fill="#457A9D" id="Combined-Shape">
            <path d="M3,0 L137,0 C138.656854,-3.04359188e-16 140,1.34314575 140,3 L140,24 C140,25.6568542 138.656854,27 137,27 L3,27 C1.34314575,27 2.02906125e-16,25.6568542 0,24 L0,3 C-2.02906125e-16,1.34314575 1.34314575,3.04359188e-16 3,0 Z M49.8000084,16.7538446 C49.8000084,16.6518843 49.7173533,16.5692292 49.6153931,16.5692292 L46.5692358,16.5692292 C46.5182556,16.5692292 46.4769282,16.5279018 46.4769282,16.4769216 L46.4769282,9.36923584 C46.4769282,9.26727557 46.3942731,9.18462048 46.2923128,9.18462048 L45.1846154,9.18462048 C45.0826551,9.18462048 45,9.26727557 45,9.36923584 L45,17.8615421 C45,17.9635023 45.0826551,18.0461574 45.1846154,18.0461574 L49.6153931,18.0461574 C49.7173533,18.0461574 49.8000084,17.9635023 49.8000084,17.8615421 L49.8000084,16.7538446 Z M57.6384603,9.00000018 C55.2423934,9.00000018 53.2999998,11.0663815 53.2999998,13.6153887 C53.2999998,16.1643959 55.2423934,18.2307693 57.6384603,18.2307693 C60.0345263,18.2307693 61.9769199,16.1643961 61.9769199,13.6153887 C61.9769199,11.0663815 60.0345263,9.00000018 57.6384603,9.00000018 Z M57.6384603,10.4769203 C59.2163164,10.4769203 60.4999976,11.8848325 60.4999976,13.6153887 C60.4999976,15.3459368 59.2163164,16.753849 57.6384603,16.753849 C56.0606042,16.753849 54.7769219,15.3459368 54.7769219,13.6153887 C54.7769219,11.8848327 56.0606041,10.4769203 57.6384603,10.4769203 Z M69.9990815,13.6153889 C69.8971213,13.6153889 69.8144662,13.6980439 69.8144662,13.8000042 L69.8144662,14.9077017 C69.8144662,15.0096619 69.8971213,15.092317 69.9990815,15.092317 L72.2461385,15.092317 C72.288107,15.092317 72.3172836,15.1354559 72.2978244,15.1726404 C71.8038844,16.1165171 70.8758901,16.7538492 69.8144664,16.7538492 C68.2366022,16.7538492 66.952928,15.345937 66.952928,13.6153889 C66.952928,11.8848329 68.2366022,10.4769205 69.8144664,10.4769205 C70.5648132,10.4769205 71.2481353,10.7958486 71.7589377,11.3160079 C71.8293174,11.3876768 71.9445372,11.3930004 72.0155648,11.3219734 L72.8005998,10.5369443 C72.8723228,10.4652217 72.8797402,10.3491877 72.8085711,10.2769153 C72.0299563,9.48622888 70.9758569,9 69.814466,9 C67.4183971,9 65.4759996,11.0663813 65.4759996,13.6153885 C65.4759996,16.1643957 67.4183971,18.2307691 69.814466,18.2307691 C72.1543693,18.2307691 74.0616179,16.2601219 74.1497348,13.7937999 C74.153311,13.6937043 74.0684605,13.6153885 73.9683013,13.6153885 L69.9990814,13.6153885 Z M83.4319998,17.8615486 C83.4319998,17.9635089 83.5146549,18.046164 83.6166152,18.046164 L84.7243126,18.046164 C84.8262729,18.046164 84.908928,17.9635089 84.908928,17.8615486 L84.908928,9.36924243 C84.908928,9.26728217 84.8262729,9.18462708 84.7243126,9.18462708 L83.6166152,9.18462708 C83.5146549,9.18462708 83.4319998,9.26728217 83.4319998,9.36924243 L83.4319998,17.8615486 Z M93.3926117,9.1846203 C93.2906514,9.1846203 93.2079963,9.26727539 93.2079963,9.36923566 L93.2079963,15.9328563 C93.2079963,15.9510635 93.1826518,15.9555326 93.1764244,15.9384234 L90.7813142,9.35810156 C90.7434954,9.254198 90.6441272,9.18462048 90.5335551,9.18462048 L88.5926152,9.18462048 C88.4906549,9.18462048 88.4079998,9.26727557 88.4079998,9.36923584 L88.4079998,17.8615421 C88.4079998,17.9635023 88.4906549,18.0461574 88.5926152,18.0461574 L89.7003126,18.0461574 C89.8022729,18.0461574 89.884928,17.9635023 89.884928,17.8615421 L89.884928,11.3058241 C89.884928,11.2876172 89.910272,11.2831483 89.9164992,11.3002573 L92.3086661,17.8726758 C92.346484,17.9765795 92.4458517,18.0461576 92.5564238,18.0461576 L94.5003093,18.0461576 C94.6022696,18.0461576 94.6849247,17.9635025 94.6849247,17.8615422 L94.6849247,9.36923602 C94.6849247,9.26727576 94.6022696,9.18462067 94.5003093,9.18462067 L93.3926119,9.18462067 Z"></path>
        </g>
    </g>
</svg>