<?xml version="1.0" encoding="UTF-8"?>
<svg width="140px" height="27px" viewBox="0 0 140 27" version="1.1" xmlns="http://www.w3.org/2000/svg" xmlns:xlink="http://www.w3.org/1999/xlink">
    <!-- Generator: Sketch 49 (51002) - http://www.bohemiancoding.com/sketch -->
    <title>read next arrow button hover</title>
    <desc>Created with Sketch.</desc>
    <defs></defs>
    <g id="read-next-arrow-button-hover" stroke="none" stroke-width="1" fill="none" fill-rule="evenodd">
        <g fill="#556F4F" fill-rule="nonzero" id="Combined-Shape">
            <path d="M117.124619,0.1270276 L139.251396,12.3413133 C139.521465,12.4677542 139.739332,12.6798523 139.869213,12.942769 C140.185334,13.582694 139.908728,14.3509365 139.251396,14.6586867 L117.124619,26.8729724 C116.946028,26.956585 116.750399,27 116.55223,27 L3.08160707,27 C1.38672318,27 0,25.6515 0,24 L0,3 C0,1.35 1.38672318,0 3.08160707,0 L116.55223,0 C116.750399,-1.82710989e-14 116.946028,0.0434150445 117.124619,0.1270276 Z M24.656446,17.2713342 C24.7285428,17.1992373 24.7285428,17.0823453 24.656446,17.0102485 L22.0185317,14.3723342 C21.9944589,14.3482614 22.0115237,14.3070504 22.0455682,14.307043 L22.3230808,14.3069833 C23.548798,14.2916711 24.5384651,13.1409882 24.5384651,11.7230825 C24.5384651,10.3051609 23.548798,9.15449396 22.3230808,9.13918176 L19.1846157,9.1385061 C19.0826622,9.13813293 19.0000005,9.2211275 19.0000005,9.32308173 L19.0000005,17.8153879 C19.0000005,17.9173482 19.0826556,18.0000033 19.1846159,18.0000033 L20.2923134,18.0000033 C20.3942736,18.0000033 20.4769287,17.9173482 20.4769287,17.8153879 L20.4769287,15.0117202 C20.4769287,14.9776674 20.518121,14.9606049 20.5422,14.984684 L23.6121054,18.0545894 C23.6842023,18.1266863 23.8010942,18.1266863 23.8731911,18.0545894 L24.6564464,17.2713342 Z M32.739393,10.6153943 C32.8413533,10.6153943 32.9240084,10.5327393 32.9240084,10.430779 L32.9240084,9.32308154 C32.9240084,9.22112128 32.8413533,9.13846619 32.739393,9.13846619 L28.3086153,9.13846619 C28.2066551,9.13846619 28.124,9.22112128 28.124,9.32308154 L28.124,17.8153878 C28.124,17.917348 28.2066551,18.0000031 28.3086153,18.0000031 L32.739393,18.0000031 C32.8413533,18.0000031 32.9240084,17.917348 32.9240084,17.8153878 L32.9240084,16.7076903 C32.9240084,16.60573 32.8413533,16.523075 32.739393,16.523075 L29.6932358,16.523075 C29.6422556,16.523075 29.6009281,16.4817475 29.6009281,16.4307673 L29.6009281,14.4000062 C29.6009281,14.349026 29.6422556,14.3076985 29.6932358,14.3076985 L32.739393,14.3076985 C32.8413533,14.3076985 32.9240084,14.2250435 32.9240084,14.1230832 L32.9240084,13.0153857 C32.9240084,12.9134255 32.8413533,12.8307704 32.739393,12.8307704 L29.6932358,12.8307704 C29.6422556,12.8307704 29.6009281,12.7894429 29.6009281,12.7384627 L29.6009281,10.7077017 C29.6009281,10.6567214 29.6422556,10.615394 29.6932358,10.615394 L32.739393,10.615394 Z M42.6791971,17.8265219 C42.7170153,17.9304254 42.8163832,18.0000033 42.9269553,18.0000033 L44.1294193,18.0000033 C44.2191974,18.0000033 44.2815985,17.9108855 44.2508926,17.8265217 L41.1518367,9.311948 C41.1140189,9.20804425 41.014651,9.13846619 40.9040791,9.13846619 L39.7015197,9.13846619 C39.5909478,9.13846619 39.4915799,9.20804425 39.453762,9.311948 L36.3547062,17.8265217 C36.3240003,17.9108853 36.3864014,18.0000033 36.4761795,18.0000033 L37.6786435,18.0000033 C37.7892156,18.0000033 37.8885834,17.9304254 37.9264017,17.8265217 L38.7052256,15.6867475 C38.7241347,15.6347957 38.7738187,15.600007 38.8291047,15.600007 L41.7764941,15.600007 C41.83178,15.600007 41.8814641,15.6347959 41.9003732,15.6867477 L42.6791971,17.8265219 Z M50.7150839,9.138466 L47.8646157,9.138466 C47.7626554,9.138466 47.6800003,9.22112109 47.6800003,9.32308136 L47.6800003,17.8153876 C47.6800003,17.9173478 47.7626554,18.0000029 47.8646157,18.0000029 L50.7150839,18.0000029 C53.0153049,18.0000029 54.8800049,16.0162802 54.8800049,13.5692344 C54.8800049,11.1221887 53.0153049,9.13846582 50.7150839,9.13846582 Z M68.9446118,9.13846637 C68.8426515,9.13846637 68.7599964,9.22112146 68.7599964,9.32308173 L68.7599964,15.8867023 C68.7599964,15.9049096 68.7346519,15.9093787 68.7284244,15.8922695 L66.3333143,9.31194763 C66.2954955,9.20804407 66.1961273,9.13846655 66.0855552,9.13846655 L64.1446152,9.13846655 C64.042655,9.13846655 63.9599999,9.22112164 63.9599999,9.32308191 L63.9599999,17.8153881 C63.9599999,17.9173484 64.042655,18.0000035 64.1446152,18.0000035 L65.2523127,18.0000035 C65.354273,18.0000035 65.436928,17.9173484 65.436928,17.8153881 L65.436928,11.2596702 C65.436928,11.2414633 65.462272,11.2369944 65.4684993,11.2541034 L67.8606662,17.8265219 C67.8984841,17.9304256 67.9978517,18.0000037 68.1084238,18.0000037 L70.0523094,18.0000037 C70.1542697,18.0000037 70.2369247,17.9173486 70.2369247,17.8153883 L70.2369247,9.32308209 C70.2369247,9.22112183 70.1542697,9.13846674 70.0523094,9.13846674 L68.9446119,9.13846674 Z M78.2513929,10.6153943 C78.3533532,10.6153943 78.4360083,10.5327393 78.4360083,10.430779 L78.4360083,9.32308154 C78.4360083,9.22112128 78.3533532,9.13846619 78.2513929,9.13846619 L73.8206152,9.13846619 C73.7186549,9.13846619 73.6359999,9.22112128 73.6359999,9.32308154 L73.6359999,17.8153878 C73.6359999,17.917348 73.7186549,18.0000031 73.8206152,18.0000031 L78.2513929,18.0000031 C78.3533532,18.0000031 78.4360083,17.917348 78.4360083,17.8153878 L78.4360083,16.7076903 C78.4360083,16.60573 78.3533532,16.523075 78.2513929,16.523075 L75.2052357,16.523075 C75.1542555,16.523075 75.112928,16.4817475 75.112928,16.4307673 L75.112928,14.4000062 C75.112928,14.349026 75.1542555,14.3076985 75.2052357,14.3076985 L78.2513929,14.3076985 C78.3533532,14.3076985 78.4360083,14.2250435 78.4360083,14.1230832 L78.4360083,13.0153857 C78.4360083,12.9134255 78.3533532,12.8307704 78.2513929,12.8307704 L75.2052357,12.8307704 C75.1542555,12.8307704 75.112928,12.7894429 75.112928,12.7384627 L75.112928,10.7077017 C75.112928,10.6567214 75.1542555,10.615394 75.2052357,10.615394 L78.2513929,10.615394 Z M87.3179505,13.6345221 C87.281902,13.5984736 87.281902,13.5400278 87.3179505,13.5039794 L90.50858,10.31335 C90.5806768,10.2412531 90.5806768,10.1243611 90.50858,10.0522643 L89.7253247,9.26900903 C89.6532279,9.19691217 89.5363359,9.19691217 89.464239,9.26900903 L86.2736096,12.4596385 C86.2375611,12.495687 86.1791153,12.495687 86.1430669,12.4596385 L82.9524375,9.26900903 C82.8803406,9.19691217 82.7634486,9.19691217 82.6913518,9.26900903 L81.9080965,10.0522643 C81.8359997,10.1243611 81.8359997,10.2412531 81.9080965,10.31335 L85.098726,13.5039794 C85.1347745,13.540028 85.1347745,13.5984738 85.098726,13.6345221 L81.9081284,16.8251197 C81.8360315,16.8972166 81.8360315,17.0141085 81.9081284,17.0862054 L82.6913836,17.8694606 C82.7634805,17.9415575 82.8803725,17.9415575 82.9524693,17.8694606 L86.1430669,14.678863 C86.1791154,14.6428145 86.2375612,14.6428145 86.2736096,14.678863 L89.4642072,17.8694606 C89.536304,17.9415575 89.653196,17.9415575 89.7252929,17.8694606 L90.5085481,17.0862054 C90.580645,17.0141085 90.580645,16.8972166 90.5085481,16.8251197 L87.3179505,13.6345221 Z M100.260921,9.32308173 C100.260921,9.22112146 100.178266,9.13846637 100.076305,9.13846637 L94.1686153,9.13846637 C94.0666551,9.13846637 93.984,9.22112146 93.984,9.32308173 L93.984,10.4307792 C93.984,10.5327394 94.0666551,10.6153945 94.1686153,10.6153945 L96.2916846,10.6153945 C96.3426648,10.6153945 96.3839923,10.656722 96.3839923,10.7077022 L96.3839923,17.815396 C96.3839923,17.9173563 96.4666474,18.0000114 96.5686077,18.0000114 L97.6763051,18.0000114 C97.7782654,18.0000114 97.8609205,17.9173563 97.8609205,17.815396 L97.8609205,10.7077022 C97.8609205,10.656722 97.9022479,10.6153945 97.9532281,10.6153945 L100.076305,10.6153945 C100.178266,10.6153945 100.260921,10.5327394 100.260921,10.4307792 L100.260921,9.32308173 Z M20.4769282,10.7085608 C20.4769282,10.6575888 20.518264,10.6162771 20.569236,10.6163068 L22.3230806,10.6173265 C22.7191923,10.6377982 23.0615446,11.1450223 23.0615446,11.7230828 C23.0615446,12.3011433 22.7191923,12.8083594 22.3230806,12.8288311 L20.569236,12.8298583 C20.5182673,12.8304254 20.4769283,12.7885765 20.4769283,12.7376047 L20.4769283,10.708561 Z M39.3666665,14.1230788 C39.3217774,14.1230788 39.290577,14.0785197 39.3059298,14.0363377 L40.2712283,11.3841843 C40.2819525,11.35472 40.3236463,11.35472 40.3343704,11.3841843 L41.299669,14.0363377 C41.3150218,14.0785197 41.2838212,14.1230788 41.2389321,14.1230788 L39.3666668,14.1230788 Z M50.7150837,16.523083 L49.2492358,16.5230755 C49.1982563,16.5230715 49.1569281,16.4817468 49.1569281,16.4307673 L49.1569281,10.707702 C49.1569281,10.6567218 49.1982555,10.6153943 49.2492358,10.6153943 L50.7150837,10.6153943 C52.197251,10.6153865 53.4030848,11.9404733 53.4030848,13.5692346 C53.4030848,15.197996 52.1972512,16.5230828 50.7150839,16.5230828 Z"></path>
        </g>
    </g>
</svg>