<?xml version="1.0" encoding="UTF-8"?>
<svg width="140px" height="27px" viewBox="0 0 140 27" version="1.1" xmlns="http://www.w3.org/2000/svg" xmlns:xlink="http://www.w3.org/1999/xlink">
    <!-- Generator: Sketch 49 (51002) - http://www.bohemiancoding.com/sketch -->
    <title>share arrow button</title>
    <desc>Created with Sketch.</desc>
    <defs></defs>
    <g id="share-arrow-button" stroke="none" stroke-width="1" fill="none" fill-rule="evenodd">
        <path d="M117.124619,0.1270276 L139.251396,12.3413133 C139.521465,12.4677542 139.739332,12.6798523 139.869213,12.942769 C140.185334,13.582694 139.908728,14.3509365 139.251396,14.6586867 L117.124619,26.8729724 C116.946028,26.956585 116.750399,27 116.55223,27 L18.4896424,27 L18.4896424,16.5 L21.5712495,16.5 L22.4464259,12.789 L18.4896424,12.789 L18.4896424,10.254 C18.4896424,9.216 19.0720661,8.097 20.6036249,8.097 L22.4479667,8.097 L22.4479667,4.1895 L19.6698979,4.1865 C15.7346857,4.1865 13.8672318,6.4665 13.8672318,9.7125 L13.8672318,12.7875 L10.7856247,12.7875 L10.7856247,16.5 L13.8672318,16.5 L13.8672318,27 L3.08160707,27 C1.38672318,27 0,25.6515 0,24 L0,3 C0,1.35 1.38672318,0 3.08160707,0 L116.55223,0 C116.750399,-1.82710989e-14 116.946028,0.0434150445 117.124619,0.1270276 Z M50.6189357,11.5960198 C50.6393537,11.691911 50.7168591,11.7692319 50.8144836,11.7692319 L51.8778712,11.7692319 C51.9749622,11.7692319 52.0558387,11.6905428 52.0483652,11.5933083 C51.9488767,10.2989335 50.7599973,9.27692335 49.3080114,9.27692335 C47.7908345,9.27692335 46.5609201,10.3927662 46.5609201,11.7692319 C46.5609201,12.7869157 47.2332299,13.6621291 48.196878,14.0492534 L49.8877421,14.7285091 C50.3272071,14.9050483 50.6372521,15.2725086 50.6372521,15.6857212 C50.6372521,16.2647019 50.0285342,16.7538414 49.3080116,16.7538414 C48.660667,16.7538414 48.1035763,16.3590128 47.9970947,15.8589308 C47.9766769,15.7630403 47.899171,15.6857212 47.8015472,15.6857212 L46.738152,15.6857212 C46.6410613,15.6857212 46.5601843,15.7644096 46.567658,15.8616438 C46.6671465,17.1560118 47.856026,18.178022 49.3080118,18.178022 C50.8251887,18.178022 52.0551031,17.0621791 52.0551031,15.685721 C52.0551031,14.668045 51.3828009,13.7928238 50.4191605,13.4057073 L48.7282735,12.7264364 C48.2888161,12.5498972 47.9787787,12.1824447 47.9787787,11.7692319 C47.9787787,11.1902436 48.5874889,10.7010965 49.3080116,10.7010965 C49.9553561,10.7010963 50.5124529,11.095931 50.6189357,11.5960198 Z M60.0727958,9.45494971 C59.9749134,9.45494971 59.8955641,9.53465284 59.8955641,9.63297166 L59.8955641,12.9263753 C59.8955641,12.9755348 59.8558895,13.0153863 59.8069482,13.0153863 L56.8017449,13.0153863 C56.7528036,13.0153863 56.713129,12.9755348 56.713129,12.9263753 L56.713129,9.63297166 C56.713129,9.53465284 56.6337797,9.45494971 56.5358974,9.45494971 L55.4725021,9.45494971 C55.3746198,9.45494971 55.2952705,9.53465284 55.2952705,9.63297166 L55.2952705,17.8219812 C55.2952705,17.9203001 55.3746198,18.0000032 55.4725021,18.0000032 L56.5358974,18.0000032 C56.6337797,18.0000032 56.713129,17.9203001 56.713129,17.8219812 L56.713129,14.5285776 C56.713129,14.4794181 56.7528036,14.4395666 56.8017449,14.4395666 L59.8069482,14.4395666 C59.8558895,14.4395666 59.8955641,14.4794181 59.8955641,14.5285776 L59.8955641,17.8219812 C59.8955641,17.9203001 59.9749134,18.0000032 60.0727958,18.0000032 L61.136191,18.0000032 C61.2340734,18.0000032 61.3134227,17.9203001 61.3134227,17.8219812 L61.3134227,9.63297166 C61.3134227,9.53465284 61.2340734,9.45494971 61.136191,9.45494971 L60.0727958,9.45494971 Z M70.6497814,17.8327175 C70.6860871,17.9329102 70.7814808,18.0000032 70.8876306,18.0000032 L72.0420022,18.0000032 C72.1281896,18.0000032 72.1880949,17.9140682 72.1586172,17.8327173 L69.1835077,9.62223557 C69.1472024,9.52204267 69.0518087,9.45494954 68.9456591,9.45494954 L67.7911959,9.45494954 C67.6850463,9.45494954 67.5896527,9.52204267 67.5533473,9.62223557 L64.5782379,17.8327173 C64.5487601,17.914068 64.6086654,18.0000032 64.6948528,18.0000032 L65.8492244,18.0000032 C65.9553742,18.0000032 66.0507679,17.9329102 66.0870736,17.8327173 L66.8347485,15.7693637 C66.8529014,15.7192673 66.9005983,15.685721 66.9536731,15.685721 L69.783182,15.685721 C69.8362567,15.685721 69.8839537,15.7192675 69.9021065,15.7693638 L70.6497814,17.8327175 Z M80.8567947,17.0455967 L78.3243835,14.5018937 C78.3012734,14.4786806 78.3176558,14.4389414 78.3503386,14.4389344 L78.6167522,14.4388768 C79.7934469,14.4241115 80.7435324,13.3145244 80.7435324,11.9472581 C80.7435324,10.5799766 79.7934469,9.47040489 78.6167522,9.45563956 L75.6038097,9.45498803 C75.5059338,9.45462819 75.4265781,9.53465866 75.4265781,9.63297166 L75.4265781,17.8219812 C75.4265781,17.9203001 75.5059275,18.0000032 75.6038098,18.0000032 L76.667205,18.0000032 C76.7650874,18.0000032 76.8444367,17.9203001 76.8444367,17.8219812 L76.8444367,15.1184445 C76.8444367,15.0856078 76.8839816,15.0691547 76.9070974,15.0923738 L79.8542224,18.0526398 C79.9234357,18.1221618 80.0356526,18.1221618 80.104866,18.0526398 L80.856795,17.2973579 C80.926008,17.227836 80.926008,17.1151187 80.8567947,17.0455967 Z M88.7696967,10.7011083 L88.7696967,9.63297149 C88.7696967,9.53465266 88.6903474,9.45494954 88.592465,9.45494954 L84.3388958,9.45494954 C84.2410134,9.45494954 84.1616641,9.53465266 84.1616641,9.63297149 L84.1616641,17.8219811 C84.1616641,17.9202999 84.2410134,18.000003 84.3388958,18.000003 L88.592465,18.000003 C88.6903474,18.000003 88.7696967,17.9202999 88.7696967,17.8219811 L88.7696967,16.7538442 C88.7696967,16.6555254 88.6903474,16.5758223 88.592465,16.5758223 L85.6681385,16.5758223 C85.6191973,16.5758223 85.5795227,16.5359708 85.5795227,16.4868113 L85.5795227,14.5285774 C85.5795227,14.4794179 85.6191973,14.4395665 85.6681385,14.4395665 L88.592465,14.4395665 C88.6903474,14.4395665 88.7696967,14.3598633 88.7696967,14.2615445 L88.7696967,13.1934077 C88.7696967,13.0950889 88.6903474,13.0153857 88.592465,13.0153857 L85.6681385,13.0153857 C85.6191973,13.0153857 85.5795227,12.9755343 85.5795227,12.9263748 L85.5795227,10.9681409 C85.5795227,10.9189814 85.6191973,10.8791299 85.6681385,10.8791299 L88.592465,10.8791299 C88.6903474,10.8791303 88.7696967,10.7994271 88.7696967,10.7011083 Z M67.4114276,14.1778971 L68.3381191,11.6204634 C68.3484144,11.5920515 68.3884407,11.5920515 68.3987359,11.6204634 L69.3254274,14.1778971 C69.3401662,14.2185726 69.3102134,14.2615403 69.2671197,14.2615403 L67.4697355,14.2615403 C67.4266414,14.2615403 67.3966888,14.2185726 67.4114276,14.1778971 Z M76.9330522,10.8800101 L78.616752,10.8809934 C78.9970212,10.900734 79.3256812,11.389843 79.3256812,11.9472584 C79.3256812,12.5046739 78.9970212,12.9937751 78.616752,13.0135157 L76.9330522,13.0145063 C76.884122,13.0150531 76.8444364,12.9746987 76.8444364,12.9255474 L76.8444364,10.9689695 C76.8444362,10.9198178 76.8841189,10.8799815 76.9330522,10.8800101 Z" fill="#457A9D" fill-rule="nonzero"></path>
    </g>
</svg>