<?xml version="1.0" encoding="UTF-8"?>
<svg width="140px" height="27px" viewBox="0 0 140 27" version="1.1" xmlns="http://www.w3.org/2000/svg" xmlns:xlink="http://www.w3.org/1999/xlink">
    <!-- Generator: Sketch 49 (51002) - http://www.bohemiancoding.com/sketch -->
    <title>share button</title>
    <desc>Created with Sketch.</desc>
    <defs></defs>
    <g id="share-button" stroke="none" stroke-width="1" fill="none" fill-rule="evenodd">
        <path d="M136.921536,27 L35.9932007,27 L35.9932007,16.5 L39.0716649,16.5 L39.9459488,12.789 L35.9932007,12.789 L35.9932007,10.254 C35.9932007,9.216 36.5750304,8.097 38.1050272,8.097 L39.947488,8.097 L39.947488,4.1895 L37.1722525,4.1865 C33.2410537,4.1865 31.3755043,6.4665 31.3755043,9.7125 L31.3755043,12.7875 L28.2970401,12.7875 L28.2970401,16.5 L31.3755043,16.5 L31.3755043,27 L3.07846424,27 C1.38530891,27 0,25.6515 0,24 L0,3 C0,1.35 1.38530891,0 3.07846424,0 L136.921536,0 C138.614691,0 140,1.35 140,3 L140,24 C140,25.6515 138.614691,27 136.921536,27 Z M62.6189357,11.5960198 C62.6393537,11.691911 62.7168591,11.7692319 62.8144836,11.7692319 L63.8778712,11.7692319 C63.9749622,11.7692319 64.0558387,11.6905428 64.0483652,11.5933083 C63.9488767,10.2989335 62.7599973,9.27692335 61.3080114,9.27692335 C59.7908345,9.27692335 58.5609201,10.3927662 58.5609201,11.7692319 C58.5609201,12.7869157 59.2332299,13.6621291 60.196878,14.0492534 L61.8877421,14.7285091 C62.3272071,14.9050483 62.6372521,15.2725086 62.6372521,15.6857212 C62.6372521,16.2647019 62.0285342,16.7538414 61.3080116,16.7538414 C60.660667,16.7538414 60.1035763,16.3590128 59.9970947,15.8589308 C59.9766769,15.7630403 59.899171,15.6857212 59.8015472,15.6857212 L58.738152,15.6857212 C58.6410613,15.6857212 58.5601843,15.7644096 58.567658,15.8616438 C58.6671465,17.1560118 59.856026,18.178022 61.3080118,18.178022 C62.8251887,18.178022 64.0551031,17.0621791 64.0551031,15.685721 C64.0551031,14.668045 63.3828009,13.7928238 62.4191605,13.4057073 L60.7282735,12.7264364 C60.2888161,12.5498972 59.9787787,12.1824447 59.9787787,11.7692319 C59.9787787,11.1902436 60.5874889,10.7010965 61.3080116,10.7010965 C61.9553561,10.7010963 62.5124529,11.095931 62.6189357,11.5960198 Z M72.0727958,9.45494971 C71.9749134,9.45494971 71.8955641,9.53465284 71.8955641,9.63297166 L71.8955641,12.9263753 C71.8955641,12.9755348 71.8558895,13.0153863 71.8069482,13.0153863 L68.8017449,13.0153863 C68.7528036,13.0153863 68.713129,12.9755348 68.713129,12.9263753 L68.713129,9.63297166 C68.713129,9.53465284 68.6337797,9.45494971 68.5358974,9.45494971 L67.4725021,9.45494971 C67.3746198,9.45494971 67.2952705,9.53465284 67.2952705,9.63297166 L67.2952705,17.8219812 C67.2952705,17.9203001 67.3746198,18.0000032 67.4725021,18.0000032 L68.5358974,18.0000032 C68.6337797,18.0000032 68.713129,17.9203001 68.713129,17.8219812 L68.713129,14.5285776 C68.713129,14.4794181 68.7528036,14.4395666 68.8017449,14.4395666 L71.8069482,14.4395666 C71.8558895,14.4395666 71.8955641,14.4794181 71.8955641,14.5285776 L71.8955641,17.8219812 C71.8955641,17.9203001 71.9749134,18.0000032 72.0727958,18.0000032 L73.136191,18.0000032 C73.2340734,18.0000032 73.3134227,17.9203001 73.3134227,17.8219812 L73.3134227,9.63297166 C73.3134227,9.53465284 73.2340734,9.45494971 73.136191,9.45494971 L72.0727958,9.45494971 Z M82.6497814,17.8327175 C82.6860871,17.9329102 82.7814808,18.0000032 82.8876306,18.0000032 L84.0420022,18.0000032 C84.1281896,18.0000032 84.1880949,17.9140682 84.1586172,17.8327173 L81.1835077,9.62223557 C81.1472024,9.52204267 81.0518087,9.45494954 80.9456591,9.45494954 L79.7911959,9.45494954 C79.6850463,9.45494954 79.5896527,9.52204267 79.5533473,9.62223557 L76.5782379,17.8327173 C76.5487601,17.914068 76.6086654,18.0000032 76.6948528,18.0000032 L77.8492244,18.0000032 C77.9553742,18.0000032 78.0507679,17.9329102 78.0870736,17.8327173 L78.8347485,15.7693637 C78.8529014,15.7192673 78.9005983,15.685721 78.9536731,15.685721 L81.783182,15.685721 C81.8362567,15.685721 81.8839537,15.7192675 81.9021065,15.7693638 L82.6497814,17.8327175 Z M92.8567947,17.0455967 L90.3243835,14.5018937 C90.3012734,14.4786806 90.3176558,14.4389414 90.3503386,14.4389344 L90.6167522,14.4388768 C91.7934469,14.4241115 92.7435324,13.3145244 92.7435324,11.9472581 C92.7435324,10.5799766 91.7934469,9.47040489 90.6167522,9.45563956 L87.6038097,9.45498803 C87.5059338,9.45462819 87.4265781,9.53465866 87.4265781,9.63297166 L87.4265781,17.8219812 C87.4265781,17.9203001 87.5059275,18.0000032 87.6038098,18.0000032 L88.667205,18.0000032 C88.7650874,18.0000032 88.8444367,17.9203001 88.8444367,17.8219812 L88.8444367,15.1184445 C88.8444367,15.0856078 88.8839816,15.0691547 88.9070974,15.0923738 L91.8542224,18.0526398 C91.9234357,18.1221618 92.0356526,18.1221618 92.104866,18.0526398 L92.856795,17.2973579 C92.926008,17.227836 92.926008,17.1151187 92.8567947,17.0455967 Z M100.769697,10.7011083 L100.769697,9.63297149 C100.769697,9.53465266 100.690347,9.45494954 100.592465,9.45494954 L96.3388958,9.45494954 C96.2410134,9.45494954 96.1616641,9.53465266 96.1616641,9.63297149 L96.1616641,17.8219811 C96.1616641,17.9202999 96.2410134,18.000003 96.3388958,18.000003 L100.592465,18.000003 C100.690347,18.000003 100.769697,17.9202999 100.769697,17.8219811 L100.769697,16.7538442 C100.769697,16.6555254 100.690347,16.5758223 100.592465,16.5758223 L97.6681385,16.5758223 C97.6191973,16.5758223 97.5795227,16.5359708 97.5795227,16.4868113 L97.5795227,14.5285774 C97.5795227,14.4794179 97.6191973,14.4395665 97.6681385,14.4395665 L100.592465,14.4395665 C100.690347,14.4395665 100.769697,14.3598633 100.769697,14.2615445 L100.769697,13.1934077 C100.769697,13.0950889 100.690347,13.0153857 100.592465,13.0153857 L97.6681385,13.0153857 C97.6191973,13.0153857 97.5795227,12.9755343 97.5795227,12.9263748 L97.5795227,10.9681409 C97.5795227,10.9189814 97.6191973,10.8791299 97.6681385,10.8791299 L100.592465,10.8791299 C100.690347,10.8791303 100.769697,10.7994271 100.769697,10.7011083 Z M79.4114276,14.1778971 L80.3381191,11.6204634 C80.3484144,11.5920515 80.3884407,11.5920515 80.3987359,11.6204634 L81.3254274,14.1778971 C81.3401662,14.2185726 81.3102134,14.2615403 81.2671197,14.2615403 L79.4697355,14.2615403 C79.4266414,14.2615403 79.3966888,14.2185726 79.4114276,14.1778971 Z M88.9330522,10.8800101 L90.616752,10.8809934 C90.9970212,10.900734 91.3256812,11.389843 91.3256812,11.9472584 C91.3256812,12.5046739 90.9970212,12.9937751 90.616752,13.0135157 L88.9330522,13.0145063 C88.884122,13.0150531 88.8444364,12.9746987 88.8444364,12.9255474 L88.8444364,10.9689695 C88.8444362,10.9198178 88.8841189,10.8799815 88.9330522,10.8800101 Z" fill="#457A9D" fill-rule="nonzero"></path>
    </g>
</svg>